<?xml version="1.0" encoding="UTF-8" standalone="no"?>
<!DOCTYPE svg PUBLIC "http://java.sun.com/xml/ns/persistence/persistence_1_0.xsd">

<svg xmlns="http://www.w3.org/2000/svg"
	width="2.9163in" height="1.24984in"
	viewBox="0 0 280 120">
	<path id="选区 #1"
		fill="none" stroke="#FFFFFF" stroke-width="1"
		d="M 280.00,0.00
           C 280.00,0.00 280.00,120.00 280.00,120.00
             280.00,120.00 0.00,120.00 0.00,120.00
             0.00,120.00 0.00,0.00 0.00,0.00
             0.00,0.00 280.00,0.00 280.00,0.00 Z
           M 203.00,39.00
           C 203.00,39.00 201.00,51.00 201.00,51.00
             192.03,46.28 184.20,52.66 183.34,62.00
             182.85,67.37 186.21,72.17 192.00,71.37
             194.16,71.07 196.09,69.97 198.00,69.00
             198.00,69.00 204.00,71.00 204.00,71.00
             204.00,71.00 210.00,39.00 210.00,39.00
             210.00,39.00 203.00,39.00 203.00,39.00 Z
           M 217.94,45.18
           C 220.61,44.55 222.93,40.00 217.12,39.74
             212.28,42.76 215.37,45.78 217.94,45.18 Z
           M 54.00,40.84
           C 38.45,44.27 35.76,62.40 42.39,68.35
             47.74,73.15 60.84,72.56 63.47,67.61
             64.47,65.71 65.80,56.49 66.00,54.00
             66.00,54.00 53.00,54.00 53.00,54.00
             53.00,54.00 53.00,59.00 53.00,59.00
             53.00,59.00 59.00,59.00 59.00,59.00
             58.27,60.98 57.59,63.80 55.69,64.96
             52.62,66.85 47.63,64.72 46.45,59.98
             45.31,55.46 48.32,50.18 52.04,47.74
             53.91,46.51 55.80,46.10 58.00,46.09
             61.06,46.07 63.21,46.95 66.00,48.00
             66.00,48.00 67.00,40.84 67.00,40.84
             62.07,40.35 59.05,39.52 54.00,40.84 Z
           M 121.51,45.11
           C 120.23,46.75 119.33,48.88 119.62,51.00
             120.40,56.79 127.82,58.88 129.09,61.37
             130.52,64.16 127.02,66.57 122.00,65.53
             122.00,65.53 117.06,64.00 117.06,64.00
             116.77,65.61 116.16,67.95 117.06,69.42
             119.70,73.40 135.45,72.79 137.53,63.00
             138.51,58.36 135.36,55.69 132.00,53.31
             130.48,52.23 127.48,50.63 128.34,48.27
             129.57,44.85 136.44,46.54 139.00,47.00
             139.00,47.00 140.00,41.00 140.00,41.00
             133.38,39.81 126.23,39.04 121.51,45.11 Z
           M 91.42,48.00
           C 90.82,44.80 90.84,41.63 86.90,41.15
             81.69,40.52 80.29,44.15 78.22,48.00
             78.22,48.00 66.00,71.00 66.00,71.00
             67.72,70.98 70.21,71.08 71.79,70.40
             74.61,69.19 75.08,66.46 77.39,65.02
             79.93,63.43 85.19,63.64 86.98,66.31
             87.91,67.72 87.87,69.40 88.00,71.00
             88.00,71.00 95.00,71.00 95.00,71.00
             94.86,64.40 92.70,54.77 91.42,48.00 Z
           M 148.41,44.39
           C 146.98,45.24 146.29,46.36 145.13,47.60
             143.06,50.22 140.66,52.18 145.13,54.00
             144.42,57.21 142.52,65.08 143.61,67.89
             145.16,71.89 152.54,74.52 154.00,66.00
             148.54,64.50 150.84,61.29 151.00,54.00
             155.44,53.63 156.21,53.52 157.00,49.00
             157.00,49.00 152.00,49.00 152.00,49.00
             152.00,49.00 153.00,43.00 153.00,43.00
             151.44,43.34 149.81,43.57 148.41,44.39 Z
           M 161.58,50.02
           C 159.83,51.29 159.42,55.00 159.08,57.00
             158.19,62.23 156.25,72.19 165.00,71.42
             167.20,71.23 169.11,70.02 171.00,69.00
             173.38,71.64 176.42,71.35 177.85,67.85
             178.79,65.58 180.76,52.02 181.00,49.00
             169.78,49.36 176.08,57.44 171.15,63.73
             170.40,64.69 169.37,65.52 168.09,65.52
             163.84,65.52 165.52,58.38 165.92,56.00
             165.92,56.00 167.00,50.02 167.00,50.02
             165.20,49.54 163.31,48.80 161.58,50.02 Z
           M 213.93,50.60
           C 211.60,53.19 210.08,67.15 210.00,71.00
             210.00,71.00 216.00,71.00 216.00,71.00
             216.00,71.00 219.00,49.00 219.00,49.00
             217.11,49.16 215.34,49.04 213.93,50.60 Z
           M 222.80,58.00
           C 220.28,66.04 225.29,73.05 234.00,71.43
             245.88,69.23 250.10,53.72 239.98,49.56
             237.43,48.73 234.64,49.04 232.00,49.56
             227.20,50.95 224.38,52.97 222.80,58.00 Z
           M 94.00,79.00
           C 94.00,79.00 94.00,82.00 94.00,82.00
             99.25,82.00 108.85,83.70 112.00,79.00
             112.00,79.00 94.00,79.00 94.00,79.00 Z" />
</svg>
